<?xml version="1.0" standalone="no"?>
<!DOCTYPE svg PUBLIC "-//W3C//DTD SVG 20010904//EN"
 "http://www.w3.org/TR/2001/REC-SVG-20010904/DTD/svg10.dtd">
<svg version="1.0" xmlns="http://www.w3.org/2000/svg"
 width="512.000000pt" height="512.000000pt" viewBox="0 0 512.000000 512.000000"
 preserveAspectRatio="xMidYMid meet">

<g transform="translate(0.000000,512.000000) scale(0.100000,-0.100000)"
fill="#19c246" stroke="none">
<path d="M2494 5102 c-16 -9 -59 -38 -95 -64 -365 -263 -1012 -458 -1721 -517
-130 -11 -169 -25 -198 -74 -19 -31 -20 -55 -20 -737 0 -396 4 -753 10 -815
65 -710 320 -1342 767 -1905 95 -120 398 -420 528 -524 210 -167 565 -385 727
-447 76 -29 102 -23 262 60 542 280 988 677 1320 1176 302 454 476 917 563
1500 13 93 17 233 20 885 4 760 3 776 -16 807 -30 48 -69 63 -194 74 -715 62
-1309 236 -1695 498 -161 109 -192 120 -258 83z m117 -224 c19 -6 57 -26 86
-44 362 -230 891 -395 1511 -473 178 -22 215 -39 252 -115 l22 -46 -5 -647
c-4 -685 -6 -719 -58 -983 -193 -992 -830 -1849 -1722 -2314 -122 -64 -154
-63 -290 8 -288 151 -543 339 -785 579 -280 277 -470 541 -642 892 -125 254
-198 461 -259 730 -70 307 -81 466 -81 1168 0 561 0 571 21 615 36 74 74 91
251 113 621 78 1153 244 1513 474 85 54 126 64 186 43z"/>
<path d="M2485 4659 c-85 -56 -300 -160 -439 -214 -317 -122 -681 -210 -1086
-263 l-135 -17 -3 -500 c-4 -634 9 -845 69 -1125 135 -638 480 -1235 960
-1666 191 -171 404 -321 621 -438 l88 -48 87 48 c842 455 1433 1274 1602 2219
41 234 46 326 46 929 l0 580 -192 27 c-531 75 -919 187 -1293 374 -72 35 -155
80 -185 100 -31 19 -61 35 -68 34 -6 0 -39 -18 -72 -40z m-690 -763 c117 -53
201 -170 212 -295 7 -70 -6 -97 -54 -117 -31 -14 -38 -13 -71 3 -38 18 -40 23
-62 118 -22 99 -127 164 -219 137 -130 -40 -180 -191 -95 -292 38 -44 74 -60
165 -70 43 -5 99 -18 124 -29 64 -28 150 -113 182 -180 24 -49 27 -68 28 -151
0 -88 -3 -101 -33 -162 -76 -155 -248 -236 -412 -194 -155 40 -262 163 -277
319 -5 57 -3 66 18 90 15 17 38 30 61 34 32 5 41 1 68 -25 16 -17 30 -41 30
-54 0 -70 44 -144 103 -175 40 -20 124 -20 164 0 95 50 129 172 72 264 -31 50
-79 74 -172 84 -147 17 -249 85 -310 208 -29 59 -32 74 -32 156 0 76 4 99 27
146 46 99 127 171 231 205 67 22 181 13 252 -20z m921 -1 c71 -35 134 -96 168
-163 27 -53 46 -147 39 -187 -8 -37 -46 -67 -88 -67 -52 0 -83 33 -94 99 -14
91 -70 154 -147 169 -147 27 -263 -131 -194 -266 31 -61 83 -90 177 -99 141
-14 242 -78 301 -189 77 -145 55 -306 -58 -426 -74 -78 -150 -110 -260 -110
-72 0 -94 4 -148 28 -114 52 -205 178 -212 291 -4 64 -1 80 20 103 61 65 160
16 160 -79 0 -47 39 -107 88 -136 88 -52 201 -21 251 67 33 58 27 142 -13 195
-34 45 -96 74 -154 75 -93 0 -216 61 -275 135 -160 201 -69 501 176 581 70 23
193 13 263 -21z m545 6 l29 -29 0 -481 c0 -320 4 -488 11 -504 21 -46 43 -52
226 -55 l173 -4 25 -30 c28 -33 31 -54 13 -93 -21 -48 -52 -55 -226 -55 -192
0 -243 12 -309 73 -24 22 -54 59 -66 82 -22 39 -22 49 -25 553 l-3 513 30 29
c40 40 82 40 122 1z m-585 -1550 c48 -22 106 -78 130 -129 11 -22 20 -71 24
-121 l5 -84 47 -14 c66 -19 114 -70 128 -137 8 -33 10 -152 8 -341 -3 -333 -6
-345 -87 -396 l-45 -29 -326 0 -326 0 -45 29 c-81 51 -84 63 -87 396 -2 189 0
308 8 341 14 67 62 118 128 137 l47 14 5 84 c4 50 13 99 24 120 20 43 79 105
118 125 71 37 167 39 244 5z"/>
<path d="M2495 2164 c-21 -23 -25 -37 -25 -90 l0 -64 90 0 90 0 0 64 c0 82
-27 116 -90 116 -31 0 -47 -6 -65 -26z"/>
<path d="M2290 1555 l0 -275 270 0 270 0 0 275 0 275 -270 0 -270 0 0 -275z
m305 81 c38 -16 55 -42 55 -83 0 -61 -65 -106 -120 -83 -78 32 -82 133 -7 165
40 18 32 17 72 1z"/>
</g>
</svg>
